<?xml version="1.0" encoding="UTF-8" standalone="no"?>
<!-- Created with Inkscape (http://www.inkscape.org/) -->

<svg
   width="512"
   height="512"
   viewBox="0 0 512 512"
   version="1.1"
   id="svg5"
   inkscape:export-filename="/home/rafal_opilowski/tele_plan.png"
   inkscape:export-xdpi="96"
   inkscape:export-ydpi="96"
   inkscape:version="1.1.2 (0a00cf5339, 2022-02-04)"
   sodipodi:docname="teleplan.svg"
   xmlns:inkscape="http://www.inkscape.org/namespaces/inkscape"
   xmlns:sodipodi="http://sodipodi.sourceforge.net/DTD/sodipodi-0.dtd"
   xmlns:xlink="http://www.w3.org/1999/xlink"
   xmlns="http://www.w3.org/2000/svg"
   xmlns:svg="http://www.w3.org/2000/svg">
  <sodipodi:namedview
     id="namedview7"
     pagecolor="#ffffff"
     bordercolor="#666666"
     borderopacity="1.0"
     inkscape:pageshadow="2"
     inkscape:pageopacity="0.0"
     inkscape:pagecheckerboard="0"
     inkscape:document-units="px"
     showgrid="false"
     inkscape:zoom="1.3320312"
     inkscape:cx="78.451613"
     inkscape:cy="299.91789"
     inkscape:window-width="1920"
     inkscape:window-height="1018"
     inkscape:window-x="0"
     inkscape:window-y="0"
     inkscape:window-maximized="1"
     inkscape:current-layer="layer1" />
  <defs
     id="defs2">
    <linearGradient
       inkscape:collect="always"
       id="linearGradient914">
      <stop
         style="stop-color:#ff4000;stop-opacity:1"
         offset="0"
         id="stop910" />
      <stop
         style="stop-color:#ffff00;stop-opacity:1"
         offset="1"
         id="stop912" />
    </linearGradient>
    <linearGradient
       inkscape:collect="always"
       xlink:href="#linearGradient914"
       id="linearGradient916"
       x1="0.069617391"
       y1="16.011"
       x2="16.058119"
       y2="0.024372149"
       gradientUnits="userSpaceOnUse" />
    <linearGradient
       inkscape:collect="always"
       xlink:href="#linearGradient914"
       id="linearGradient1983"
       gradientUnits="userSpaceOnUse"
       x1="0.069617391"
       y1="16.011"
       x2="16.058119"
       y2="0.024372149" />
    <linearGradient
       inkscape:collect="always"
       xlink:href="#linearGradient914"
       id="linearGradient1985"
       gradientUnits="userSpaceOnUse"
       x1="0.069617391"
       y1="16.011"
       x2="16.058119"
       y2="0.024372149" />
  </defs>
  <g
     inkscape:label="Warstwa 1"
     inkscape:groupmode="layer"
     id="layer1">
    <rect
       style="fill:#000000;fill-opacity:1;stroke:none;stroke-width:20;stroke-miterlimit:4;stroke-dasharray:none;stroke-opacity:1"
       id="rect962"
       width="513.68622"
       height="514.24341"
       x="-1.0146627"
       y="-1.5777127" />
    <g
       style="fill:url(#linearGradient916);fill-opacity:1;stroke:none;stroke-width:0.852407;stroke-miterlimit:4;stroke-dasharray:none;stroke-opacity:1"
       id="g21"
       transform="matrix(17.526026,0,0,17.526026,115.79179,115.79179)">
      <path
         d="m 9,7 a 1,1 0 0 1 1,-1 h 5 V 8 H 10 A 1,1 0 0 1 9,7 Z M 1,9 h 4 a 1,1 0 0 1 0,2 H 1 Z"
         id="path9"
         style="fill:url(#linearGradient1983);fill-opacity:1;stroke:none;stroke-width:0.852407;stroke-miterlimit:4;stroke-dasharray:none;stroke-opacity:1" />
      <path
         d="M 3.5,0 A 0.5,0.5 0 0 1 4,0.5 V 1 h 8 V 0.5 a 0.5,0.5 0 0 1 1,0 V 1 h 1 a 2,2 0 0 1 2,2 v 11 a 2,2 0 0 1 -2,2 H 2 A 2,2 0 0 1 0,14 V 3 A 2,2 0 0 1 2,1 H 3 V 0.5 A 0.5,0.5 0 0 1 3.5,0 Z M 1,4 v 10 a 1,1 0 0 0 1,1 h 12 a 1,1 0 0 0 1,-1 V 4 Z"
         id="path11"
         style="fill:url(#linearGradient1985);fill-opacity:1;stroke:none;stroke-width:0.852407;stroke-miterlimit:4;stroke-dasharray:none;stroke-opacity:1" />
    </g>
  </g>
</svg>
